<svg xmlns="http://www.w3.org/2000/svg" width="184" height="42" viewBox="0 0 184 42" role="img" aria-label="backed by smol.vc">
  <defs><clipPath id="smolclip17"><rect x="-20" y="-110" width="260.0" height="160"/></clipPath>
  <clipPath id="vcclip17"><rect x="240.0" y="-110" width="210.0" height="160"/></clipPath></defs>
  <rect x="0.5" y="0.5" width="183" height="41" rx="4" fill="#0d1219" stroke="#282e36"/>
  <g transform="translate(16 27) scale(0.115)" fill="#8a9099"><path d="M34.2 1.2000000000000002Q29.8 1.2000000000000002 26.3 -0.29999999999999993Q22.8 -1.8 20.4 -4.6000000000000005Q18.0 -7.4 16.8 -11.0L18.1 -12.700000000000001L17.6 0.0H8.200000000000001V-71.0H18.3V-41.2L17.3 -43.300000000000004Q18.2 -46.2 20.5 -48.7Q22.8 -51.2 26.35 -52.800000000000004Q29.900000000000002 -54.400000000000006 34.2 -54.400000000000006Q41.0 -54.400000000000006 46.0 -51.050000000000004Q51.0 -47.7 53.7 -41.45Q56.400000000000006 -35.2 56.400000000000006 -26.6Q56.400000000000006 -18.0 53.7 -11.75Q51.0 -5.5 46.0 -2.15Q41.0 1.2000000000000002 34.2 1.2000000000000002ZM32.5 -8.1Q38.800000000000004 -8.1 42.300000000000004 -13.05Q45.800000000000004 -18.0 45.800000000000004 -26.6Q45.800000000000004 -35.300000000000004 42.300000000000004 -40.2Q38.800000000000004 -45.1 32.7 -45.1Q28.200000000000003 -45.1 25.0 -42.900000000000006Q21.8 -40.7 20.05 -36.6Q18.3 -32.5 18.3 -26.6Q18.3 -20.900000000000002 20.05 -16.75Q21.8 -12.600000000000001 24.950000000000003 -10.350000000000001Q28.1 -8.1 32.5 -8.1Z M82.8 1.2000000000000002Q77.8 1.2000000000000002 73.8 -0.6000000000000001Q69.8 -2.4000000000000004 67.44999999999999 -5.7Q65.1 -9.0 65.1 -13.4Q65.1 -20.200000000000003 69.25 -24.0Q73.4 -27.8 81.8 -29.400000000000002L99.0 -33.0Q99.0 -39.2 96.3 -42.300000000000004Q93.6 -45.400000000000006 88.2 -45.400000000000006Q83.2 -45.400000000000006 80.4 -43.10000000000001Q77.6 -40.800000000000004 76.6 -36.7L66.0 -37.4Q67.5 -45.0 73.3 -49.7Q79.1 -54.400000000000006 88.2 -54.400000000000006Q98.4 -54.400000000000006 103.75 -48.60000000000001Q109.1 -42.800000000000004 109.1 -32.6V-11.600000000000001Q109.1 -9.8 109.9 -9.05Q110.7 -8.3 112.2 -8.3H115.2V0.0Q114.6 0.1 113.25 0.2Q111.9 0.30000000000000004 110.6 0.30000000000000004Q107.0 0.30000000000000004 104.5 -0.9Q102.0 -2.1 100.75 -4.65Q99.5 -7.2 99.30000000000001 -11.100000000000001H100.9Q100.30000000000001 -7.6000000000000005 97.80000000000001 -4.800000000000001Q95.30000000000001 -2.0 91.4 -0.3999999999999999Q87.5 1.2000000000000002 82.8 1.2000000000000002ZM84.3 -7.1000000000000005Q89.1 -7.1000000000000005 92.4 -8.8Q95.7 -10.5 97.35 -13.6Q99.0 -16.7 99.0 -20.900000000000002V-25.0L84.2 -22.0Q79.4 -21.1 77.5 -19.200000000000003Q75.6 -17.3 75.6 -14.200000000000001Q75.6 -10.9 77.9 -9.0Q80.2 -7.1000000000000005 84.3 -7.1000000000000005Z M151.2 1.2000000000000002Q143.8 1.2000000000000002 138.15 -2.25Q132.5 -5.7 129.45 -11.95Q126.4 -18.2 126.4 -26.6Q126.4 -35.0 129.45 -41.2Q132.5 -47.400000000000006 138.15 -50.900000000000006Q143.8 -54.400000000000006 151.2 -54.400000000000006Q157.3 -54.400000000000006 162.10000000000002 -52.150000000000006Q166.9 -49.900000000000006 170.0 -45.60000000000001Q173.1 -41.300000000000004 174.1 -35.300000000000004L163.8 -34.6Q162.6 -39.7 159.3 -42.400000000000006Q156.0 -45.1 151.3 -45.1Q144.6 -45.1 140.75 -40.150000000000006Q136.9 -35.2 136.9 -26.6Q136.9 -18.0 140.75 -13.05Q144.6 -8.1 151.3 -8.1Q156.1 -8.1 159.55 -10.95Q163.0 -13.8 164.1 -19.400000000000002L174.4 -18.8Q173.4 -12.700000000000001 170.2 -8.25Q167.0 -3.8000000000000003 162.15 -1.3Q157.3 1.2000000000000002 151.2 1.2000000000000002Z M188.0 0.0V-71.0H198.1V-26.400000000000002L222.1 -53.2H235.0L214.2 -30.6L235.9 0.0H224.0L207.5 -23.8L198.1 -13.9V0.0Z M270.5 1.2000000000000002Q263.0 1.2000000000000002 257.45 -2.2Q251.9 -5.6000000000000005 248.85000000000002 -11.9Q245.8 -18.2 245.8 -26.6Q245.8 -35.0 248.85000000000002 -41.2Q251.9 -47.400000000000006 257.35 -50.900000000000006Q262.8 -54.400000000000006 270.2 -54.400000000000006Q277.2 -54.400000000000006 282.65 -51.050000000000004Q288.1 -47.7 291.15 -41.45Q294.2 -35.2 294.2 -26.400000000000002V-23.6H256.3Q256.8 -16.0 260.55 -12.05Q264.3 -8.1 270.6 -8.1Q275.3 -8.1 278.4 -10.350000000000001Q281.5 -12.600000000000001 282.7 -16.2L293.2 -15.5Q290.9 -7.9 285.0 -3.35Q279.1 1.2000000000000002 270.5 1.2000000000000002ZM256.4 -31.700000000000003H283.2Q282.7 -38.5 279.1 -41.8Q275.5 -45.1 270.1 -45.1Q264.5 -45.1 260.95 -41.7Q257.4 -38.300000000000004 256.4 -31.700000000000003Z M325.8 1.2000000000000002Q319.0 1.2000000000000002 314.0 -2.15Q309.0 -5.5 306.3 -11.75Q303.6 -18.0 303.6 -26.6Q303.6 -35.2 306.3 -41.45Q309.0 -47.7 314.0 -51.050000000000004Q319.0 -54.400000000000006 325.8 -54.400000000000006Q330.2 -54.400000000000006 333.7 -52.800000000000004Q337.2 -51.2 339.5 -48.7Q341.8 -46.2 342.7 -43.300000000000004L341.7 -41.2V-71.0H351.8V0.0H342.4L341.9 -12.700000000000001L343.2 -11.0Q342.1 -7.4 339.65 -4.6000000000000005Q337.2 -1.8 333.7 -0.29999999999999993Q330.2 1.2000000000000002 325.8 1.2000000000000002ZM327.5 -8.1Q331.9 -8.1 335.04999999999995 -10.350000000000001Q338.2 -12.600000000000001 339.95 -16.75Q341.7 -20.900000000000002 341.7 -26.6Q341.7 -32.5 339.95 -36.6Q338.2 -40.7 335.0 -42.900000000000006Q331.8 -45.1 327.3 -45.1Q321.2 -45.1 317.7 -40.2Q314.2 -35.300000000000004 314.2 -26.6Q314.2 -18.0 317.7 -13.05Q321.2 -8.1 327.5 -8.1Z M454.2 1.2000000000000002Q449.8 1.2000000000000002 446.3 -0.29999999999999993Q442.8 -1.8 440.4 -4.6000000000000005Q438.0 -7.4 436.8 -11.0L438.1 -12.700000000000001L437.6 0.0H428.2V-71.0H438.3V-41.2L437.3 -43.300000000000004Q438.2 -46.2 440.5 -48.7Q442.8 -51.2 446.35 -52.800000000000004Q449.9 -54.400000000000006 454.2 -54.400000000000006Q461.0 -54.400000000000006 466.0 -51.050000000000004Q471.0 -47.7 473.7 -41.45Q476.4 -35.2 476.4 -26.6Q476.4 -18.0 473.7 -11.75Q471.0 -5.5 466.0 -2.15Q461.0 1.2000000000000002 454.2 1.2000000000000002ZM452.5 -8.1Q458.8 -8.1 462.3 -13.05Q465.8 -18.0 465.8 -26.6Q465.8 -35.300000000000004 462.3 -40.2Q458.8 -45.1 452.7 -45.1Q448.2 -45.1 445.0 -42.900000000000006Q441.8 -40.7 440.05 -36.6Q438.3 -32.5 438.3 -26.6Q438.3 -20.900000000000002 440.05 -16.75Q441.8 -12.600000000000001 444.95000000000005 -10.350000000000001Q448.1 -8.1 452.5 -8.1Z M492.9 15.0V6.5H499.4Q502.1 6.5 503.5 5.65Q504.9 4.800000000000001 505.6 2.9000000000000004L507.3 -1.8H504.0L484.6 -53.2H495.4L510.5 -11.3L524.6 -53.2H535.4L514.2 6.0Q512.6 10.8 509.3 12.9Q506.0 15.0 500.4 15.0Z"/></g>
  <g transform="translate(92.1 27)">
    <g transform="rotate(-2 20.4 -5.0)">
      <rect x="-1.2" y="-12.9" width="43.2" height="15.8" rx="2.5" fill="#59a6ff"/>
      <g transform="scale(0.17)" fill="#040b18"><path d="M30.700000000000003 1.2000000000000002Q23.200000000000003 1.2000000000000002 18.1 -1.2Q13.0 -3.6 10.2 -7.7Q7.4 -11.8 7.0 -16.8L18.8 -17.3Q19.6 -13.5 22.5 -11.25Q25.400000000000002 -9.0 30.8 -9.0Q35.800000000000004 -9.0 38.35000000000001 -10.350000000000001Q40.900000000000006 -11.700000000000001 40.900000000000006 -14.4Q40.900000000000006 -16.1 40.050000000000004 -17.3Q39.2 -18.5 36.7 -19.35Q34.2 -20.200000000000003 29.3 -21.200000000000003Q21.3 -22.8 16.700000000000003 -24.9Q12.100000000000001 -27.0 10.150000000000002 -30.2Q8.200000000000001 -33.4 8.200000000000001 -38.0Q8.200000000000001 -42.7 10.600000000000001 -46.45Q13.0 -50.2 17.75 -52.400000000000006Q22.5 -54.6 29.5 -54.6Q37.1 -54.6 41.900000000000006 -52.1Q46.7 -49.6 49.25 -45.6Q51.800000000000004 -41.6 52.400000000000006 -37.0L40.5 -36.4Q40.0 -38.7 38.6 -40.5Q37.2 -42.300000000000004 34.900000000000006 -43.35000000000001Q32.6 -44.400000000000006 29.6 -44.400000000000006Q24.700000000000003 -44.400000000000006 22.5 -42.5Q20.3 -40.6 20.3 -38.0Q20.3 -35.9 21.450000000000003 -34.55Q22.6 -33.2 25.3 -32.300000000000004Q28.0 -31.400000000000002 32.800000000000004 -30.5Q40.7 -29.0 45.1 -27.0Q49.5 -25.0 51.25 -22.0Q53.0 -19.0 53.0 -14.5Q53.0 -9.600000000000001 50.3 -6.1000000000000005Q47.6 -2.6 42.6 -0.7Q37.6 1.2000000000000002 30.700000000000003 1.2000000000000002Z M63.2 0.0V-53.400000000000006H73.1L73.6 -41.2L72.4 -41.5Q73.6 -47.900000000000006 76.5 -51.25Q79.4 -54.6 83.8 -54.6Q88.6 -54.6 91.0 -51.2Q93.4 -47.800000000000004 94.1 -41.0H92.80000000000001Q93.80000000000001 -47.6 97.05000000000001 -51.1Q100.30000000000001 -54.6 105.1 -54.6Q111.2 -54.6 114.0 -50.3Q116.80000000000001 -46.0 116.80000000000001 -36.6V0.0H105.5V-34.300000000000004Q105.5 -40.2 104.4 -42.35Q103.30000000000001 -44.5 100.9 -44.5Q99.30000000000001 -44.5 98.05000000000001 -43.45Q96.80000000000001 -42.400000000000006 96.05000000000001 -40.10000000000001Q95.30000000000001 -37.800000000000004 95.30000000000001 -34.2V0.0H84.7V-34.300000000000004Q84.7 -39.900000000000006 83.6 -42.2Q82.5 -44.5 80.0 -44.5Q78.3 -44.5 77.1 -43.45Q75.9 -42.400000000000006 75.2 -40.10000000000001Q74.5 -37.800000000000004 74.5 -34.2V0.0Z M150.0 1.2000000000000002Q142.5 1.2000000000000002 136.85 -2.2Q131.2 -5.6000000000000005 128.1 -11.9Q125.0 -18.2 125.0 -26.700000000000003Q125.0 -35.2 128.1 -41.5Q131.2 -47.800000000000004 136.85 -51.2Q142.5 -54.6 150.0 -54.6Q157.5 -54.6 163.15 -51.2Q168.8 -47.800000000000004 171.9 -41.550000000000004Q175.0 -35.300000000000004 175.0 -26.700000000000003Q175.0 -18.2 171.9 -11.9Q168.8 -5.6000000000000005 163.15 -2.2Q157.5 1.2000000000000002 150.0 1.2000000000000002ZM150.0 -9.4Q156.1 -9.4 159.39999999999998 -13.95Q162.7 -18.5 162.7 -26.700000000000003Q162.7 -34.9 159.39999999999998 -39.45Q156.1 -44.0 150.0 -44.0Q143.9 -44.0 140.60000000000002 -39.45Q137.3 -34.9 137.3 -26.700000000000003Q137.3 -18.5 140.60000000000002 -13.95Q143.9 -9.4 150.0 -9.4Z M205.5 -3.4000000000000004V-55.0Q205.5 -58.0 203.85 -59.7Q202.2 -61.400000000000006 199.1 -61.400000000000006H187.2V-71.0H200.9Q209.0 -71.0 213.15 -66.85Q217.3 -62.7 217.3 -54.5V-3.4000000000000004ZM185.2 0.0V-9.600000000000001H234.8V0.0Z M262.7 0.0V-14.100000000000001H277.3V0.0Z M322.7 0.0 304.0 -53.400000000000006H316.7L330.0 -12.8L343.3 -53.400000000000006H356.0L337.3 0.0Z M391.1 1.2000000000000002Q383.5 1.2000000000000002 377.8 -2.3000000000000003Q372.1 -5.800000000000001 368.9 -12.05Q365.7 -18.3 365.7 -26.700000000000003Q365.7 -35.1 368.9 -41.35Q372.1 -47.6 377.8 -51.1Q383.5 -54.6 391.1 -54.6Q397.3 -54.6 402.25 -52.2Q407.2 -49.800000000000004 410.45 -45.35000000000001Q413.7 -40.900000000000006 414.6 -34.800000000000004L402.7 -34.1Q401.6 -38.900000000000006 398.6 -41.45Q395.6 -44.0 391.2 -44.0Q385.0 -44.0 381.5 -39.35Q378.0 -34.7 378.0 -26.700000000000003Q378.0 -18.7 381.5 -14.05Q385.0 -9.4 391.2 -9.4Q395.6 -9.4 398.75 -12.100000000000001Q401.9 -14.8 403.0 -20.0L414.9 -19.3Q413.9 -13.100000000000001 410.65 -8.5Q407.4 -3.9000000000000004 402.35 -1.35Q397.3 1.2000000000000002 391.1 1.2000000000000002Z" clip-path="url(#smolclip17)"/></g>
    </g>
    <g transform="scale(0.17)" fill="#e2e5e9"><path d="M30.700000000000003 1.2000000000000002Q23.200000000000003 1.2000000000000002 18.1 -1.2Q13.0 -3.6 10.2 -7.7Q7.4 -11.8 7.0 -16.8L18.8 -17.3Q19.6 -13.5 22.5 -11.25Q25.400000000000002 -9.0 30.8 -9.0Q35.800000000000004 -9.0 38.35000000000001 -10.350000000000001Q40.900000000000006 -11.700000000000001 40.900000000000006 -14.4Q40.900000000000006 -16.1 40.050000000000004 -17.3Q39.2 -18.5 36.7 -19.35Q34.2 -20.200000000000003 29.3 -21.200000000000003Q21.3 -22.8 16.700000000000003 -24.9Q12.100000000000001 -27.0 10.150000000000002 -30.2Q8.200000000000001 -33.4 8.200000000000001 -38.0Q8.200000000000001 -42.7 10.600000000000001 -46.45Q13.0 -50.2 17.75 -52.400000000000006Q22.5 -54.6 29.5 -54.6Q37.1 -54.6 41.900000000000006 -52.1Q46.7 -49.6 49.25 -45.6Q51.800000000000004 -41.6 52.400000000000006 -37.0L40.5 -36.4Q40.0 -38.7 38.6 -40.5Q37.2 -42.300000000000004 34.900000000000006 -43.35000000000001Q32.6 -44.400000000000006 29.6 -44.400000000000006Q24.700000000000003 -44.400000000000006 22.5 -42.5Q20.3 -40.6 20.3 -38.0Q20.3 -35.9 21.450000000000003 -34.55Q22.6 -33.2 25.3 -32.300000000000004Q28.0 -31.400000000000002 32.800000000000004 -30.5Q40.7 -29.0 45.1 -27.0Q49.5 -25.0 51.25 -22.0Q53.0 -19.0 53.0 -14.5Q53.0 -9.600000000000001 50.3 -6.1000000000000005Q47.6 -2.6 42.6 -0.7Q37.6 1.2000000000000002 30.700000000000003 1.2000000000000002Z M63.2 0.0V-53.400000000000006H73.1L73.6 -41.2L72.4 -41.5Q73.6 -47.900000000000006 76.5 -51.25Q79.4 -54.6 83.8 -54.6Q88.6 -54.6 91.0 -51.2Q93.4 -47.800000000000004 94.1 -41.0H92.80000000000001Q93.80000000000001 -47.6 97.05000000000001 -51.1Q100.30000000000001 -54.6 105.1 -54.6Q111.2 -54.6 114.0 -50.3Q116.80000000000001 -46.0 116.80000000000001 -36.6V0.0H105.5V-34.300000000000004Q105.5 -40.2 104.4 -42.35Q103.30000000000001 -44.5 100.9 -44.5Q99.30000000000001 -44.5 98.05000000000001 -43.45Q96.80000000000001 -42.400000000000006 96.05000000000001 -40.10000000000001Q95.30000000000001 -37.800000000000004 95.30000000000001 -34.2V0.0H84.7V-34.300000000000004Q84.7 -39.900000000000006 83.6 -42.2Q82.5 -44.5 80.0 -44.5Q78.3 -44.5 77.1 -43.45Q75.9 -42.400000000000006 75.2 -40.10000000000001Q74.5 -37.800000000000004 74.5 -34.2V0.0Z M150.0 1.2000000000000002Q142.5 1.2000000000000002 136.85 -2.2Q131.2 -5.6000000000000005 128.1 -11.9Q125.0 -18.2 125.0 -26.700000000000003Q125.0 -35.2 128.1 -41.5Q131.2 -47.800000000000004 136.85 -51.2Q142.5 -54.6 150.0 -54.6Q157.5 -54.6 163.15 -51.2Q168.8 -47.800000000000004 171.9 -41.550000000000004Q175.0 -35.300000000000004 175.0 -26.700000000000003Q175.0 -18.2 171.9 -11.9Q168.8 -5.6000000000000005 163.15 -2.2Q157.5 1.2000000000000002 150.0 1.2000000000000002ZM150.0 -9.4Q156.1 -9.4 159.39999999999998 -13.95Q162.7 -18.5 162.7 -26.700000000000003Q162.7 -34.9 159.39999999999998 -39.45Q156.1 -44.0 150.0 -44.0Q143.9 -44.0 140.60000000000002 -39.45Q137.3 -34.9 137.3 -26.700000000000003Q137.3 -18.5 140.60000000000002 -13.95Q143.9 -9.4 150.0 -9.4Z M205.5 -3.4000000000000004V-55.0Q205.5 -58.0 203.85 -59.7Q202.2 -61.400000000000006 199.1 -61.400000000000006H187.2V-71.0H200.9Q209.0 -71.0 213.15 -66.85Q217.3 -62.7 217.3 -54.5V-3.4000000000000004ZM185.2 0.0V-9.600000000000001H234.8V0.0Z M262.7 0.0V-14.100000000000001H277.3V0.0Z M322.7 0.0 304.0 -53.400000000000006H316.7L330.0 -12.8L343.3 -53.400000000000006H356.0L337.3 0.0Z M391.1 1.2000000000000002Q383.5 1.2000000000000002 377.8 -2.3000000000000003Q372.1 -5.800000000000001 368.9 -12.05Q365.7 -18.3 365.7 -26.700000000000003Q365.7 -35.1 368.9 -41.35Q372.1 -47.6 377.8 -51.1Q383.5 -54.6 391.1 -54.6Q397.3 -54.6 402.25 -52.2Q407.2 -49.800000000000004 410.45 -45.35000000000001Q413.7 -40.900000000000006 414.6 -34.800000000000004L402.7 -34.1Q401.6 -38.900000000000006 398.6 -41.45Q395.6 -44.0 391.2 -44.0Q385.0 -44.0 381.5 -39.35Q378.0 -34.7 378.0 -26.700000000000003Q378.0 -18.7 381.5 -14.05Q385.0 -9.4 391.2 -9.4Q395.6 -9.4 398.75 -12.100000000000001Q401.9 -14.8 403.0 -20.0L414.9 -19.3Q413.9 -13.100000000000001 410.65 -8.5Q407.4 -3.9000000000000004 402.35 -1.35Q397.3 1.2000000000000002 391.1 1.2000000000000002Z" clip-path="url(#vcclip17)"/></g>
  </g>
</svg>