<svg xmlns="http://www.w3.org/2000/svg" width="154" height="48" viewBox="0 0 154 48" role="img" aria-label="smol.vc">
  <defs><clipPath id="smolclip32"><rect x="-20" y="-110" width="260.0" height="160"/></clipPath>
  <clipPath id="vcclip32"><rect x="240.0" y="-110" width="210.0" height="160"/></clipPath></defs>
  <g transform="translate(12 34)">
    <g transform="rotate(-2 38.4 -9.4)">
      <rect x="-2.2" y="-24.3" width="81.3" height="29.8" rx="4.8" fill="#59a6ff"/>
      <g transform="scale(0.32)" fill="#040b18"><path d="M30.700000000000003 1.2000000000000002Q23.200000000000003 1.2000000000000002 18.1 -1.2Q13.0 -3.6 10.2 -7.7Q7.4 -11.8 7.0 -16.8L18.8 -17.3Q19.6 -13.5 22.5 -11.25Q25.400000000000002 -9.0 30.8 -9.0Q35.800000000000004 -9.0 38.35000000000001 -10.350000000000001Q40.900000000000006 -11.700000000000001 40.900000000000006 -14.4Q40.900000000000006 -16.1 40.050000000000004 -17.3Q39.2 -18.5 36.7 -19.35Q34.2 -20.200000000000003 29.3 -21.200000000000003Q21.3 -22.8 16.700000000000003 -24.9Q12.100000000000001 -27.0 10.150000000000002 -30.2Q8.200000000000001 -33.4 8.200000000000001 -38.0Q8.200000000000001 -42.7 10.600000000000001 -46.45Q13.0 -50.2 17.75 -52.400000000000006Q22.5 -54.6 29.5 -54.6Q37.1 -54.6 41.900000000000006 -52.1Q46.7 -49.6 49.25 -45.6Q51.800000000000004 -41.6 52.400000000000006 -37.0L40.5 -36.4Q40.0 -38.7 38.6 -40.5Q37.2 -42.300000000000004 34.900000000000006 -43.35000000000001Q32.6 -44.400000000000006 29.6 -44.400000000000006Q24.700000000000003 -44.400000000000006 22.5 -42.5Q20.3 -40.6 20.3 -38.0Q20.3 -35.9 21.450000000000003 -34.55Q22.6 -33.2 25.3 -32.300000000000004Q28.0 -31.400000000000002 32.800000000000004 -30.5Q40.7 -29.0 45.1 -27.0Q49.5 -25.0 51.25 -22.0Q53.0 -19.0 53.0 -14.5Q53.0 -9.600000000000001 50.3 -6.1000000000000005Q47.6 -2.6 42.6 -0.7Q37.6 1.2000000000000002 30.700000000000003 1.2000000000000002Z M63.2 0.0V-53.400000000000006H73.1L73.6 -41.2L72.4 -41.5Q73.6 -47.900000000000006 76.5 -51.25Q79.4 -54.6 83.8 -54.6Q88.6 -54.6 91.0 -51.2Q93.4 -47.800000000000004 94.1 -41.0H92.80000000000001Q93.80000000000001 -47.6 97.05000000000001 -51.1Q100.30000000000001 -54.6 105.1 -54.6Q111.2 -54.6 114.0 -50.3Q116.80000000000001 -46.0 116.80000000000001 -36.6V0.0H105.5V-34.300000000000004Q105.5 -40.2 104.4 -42.35Q103.30000000000001 -44.5 100.9 -44.5Q99.30000000000001 -44.5 98.05000000000001 -43.45Q96.80000000000001 -42.400000000000006 96.05000000000001 -40.10000000000001Q95.30000000000001 -37.800000000000004 95.30000000000001 -34.2V0.0H84.7V-34.300000000000004Q84.7 -39.900000000000006 83.6 -42.2Q82.5 -44.5 80.0 -44.5Q78.3 -44.5 77.1 -43.45Q75.9 -42.400000000000006 75.2 -40.10000000000001Q74.5 -37.800000000000004 74.5 -34.2V0.0Z M150.0 1.2000000000000002Q142.5 1.2000000000000002 136.85 -2.2Q131.2 -5.6000000000000005 128.1 -11.9Q125.0 -18.2 125.0 -26.700000000000003Q125.0 -35.2 128.1 -41.5Q131.2 -47.800000000000004 136.85 -51.2Q142.5 -54.6 150.0 -54.6Q157.5 -54.6 163.15 -51.2Q168.8 -47.800000000000004 171.9 -41.550000000000004Q175.0 -35.300000000000004 175.0 -26.700000000000003Q175.0 -18.2 171.9 -11.9Q168.8 -5.6000000000000005 163.15 -2.2Q157.5 1.2000000000000002 150.0 1.2000000000000002ZM150.0 -9.4Q156.1 -9.4 159.39999999999998 -13.95Q162.7 -18.5 162.7 -26.700000000000003Q162.7 -34.9 159.39999999999998 -39.45Q156.1 -44.0 150.0 -44.0Q143.9 -44.0 140.60000000000002 -39.45Q137.3 -34.9 137.3 -26.700000000000003Q137.3 -18.5 140.60000000000002 -13.95Q143.9 -9.4 150.0 -9.4Z M205.5 -3.4000000000000004V-55.0Q205.5 -58.0 203.85 -59.7Q202.2 -61.400000000000006 199.1 -61.400000000000006H187.2V-71.0H200.9Q209.0 -71.0 213.15 -66.85Q217.3 -62.7 217.3 -54.5V-3.4000000000000004ZM185.2 0.0V-9.600000000000001H234.8V0.0Z M262.7 0.0V-14.100000000000001H277.3V0.0Z M322.7 0.0 304.0 -53.400000000000006H316.7L330.0 -12.8L343.3 -53.400000000000006H356.0L337.3 0.0Z M391.1 1.2000000000000002Q383.5 1.2000000000000002 377.8 -2.3000000000000003Q372.1 -5.800000000000001 368.9 -12.05Q365.7 -18.3 365.7 -26.700000000000003Q365.7 -35.1 368.9 -41.35Q372.1 -47.6 377.8 -51.1Q383.5 -54.6 391.1 -54.6Q397.3 -54.6 402.25 -52.2Q407.2 -49.800000000000004 410.45 -45.35000000000001Q413.7 -40.900000000000006 414.6 -34.800000000000004L402.7 -34.1Q401.6 -38.900000000000006 398.6 -41.45Q395.6 -44.0 391.2 -44.0Q385.0 -44.0 381.5 -39.35Q378.0 -34.7 378.0 -26.700000000000003Q378.0 -18.7 381.5 -14.05Q385.0 -9.4 391.2 -9.4Q395.6 -9.4 398.75 -12.100000000000001Q401.9 -14.8 403.0 -20.0L414.9 -19.3Q413.9 -13.100000000000001 410.65 -8.5Q407.4 -3.9000000000000004 402.35 -1.35Q397.3 1.2000000000000002 391.1 1.2000000000000002Z" clip-path="url(#smolclip32)"/></g>
    </g>
    <g transform="scale(0.32)" fill="#e2e5e9"><path d="M30.700000000000003 1.2000000000000002Q23.200000000000003 1.2000000000000002 18.1 -1.2Q13.0 -3.6 10.2 -7.7Q7.4 -11.8 7.0 -16.8L18.8 -17.3Q19.6 -13.5 22.5 -11.25Q25.400000000000002 -9.0 30.8 -9.0Q35.800000000000004 -9.0 38.35000000000001 -10.350000000000001Q40.900000000000006 -11.700000000000001 40.900000000000006 -14.4Q40.900000000000006 -16.1 40.050000000000004 -17.3Q39.2 -18.5 36.7 -19.35Q34.2 -20.200000000000003 29.3 -21.200000000000003Q21.3 -22.8 16.700000000000003 -24.9Q12.100000000000001 -27.0 10.150000000000002 -30.2Q8.200000000000001 -33.4 8.200000000000001 -38.0Q8.200000000000001 -42.7 10.600000000000001 -46.45Q13.0 -50.2 17.75 -52.400000000000006Q22.5 -54.6 29.5 -54.6Q37.1 -54.6 41.900000000000006 -52.1Q46.7 -49.6 49.25 -45.6Q51.800000000000004 -41.6 52.400000000000006 -37.0L40.5 -36.4Q40.0 -38.7 38.6 -40.5Q37.2 -42.300000000000004 34.900000000000006 -43.35000000000001Q32.6 -44.400000000000006 29.6 -44.400000000000006Q24.700000000000003 -44.400000000000006 22.5 -42.5Q20.3 -40.6 20.3 -38.0Q20.3 -35.9 21.450000000000003 -34.55Q22.6 -33.2 25.3 -32.300000000000004Q28.0 -31.400000000000002 32.800000000000004 -30.5Q40.7 -29.0 45.1 -27.0Q49.5 -25.0 51.25 -22.0Q53.0 -19.0 53.0 -14.5Q53.0 -9.600000000000001 50.3 -6.1000000000000005Q47.6 -2.6 42.6 -0.7Q37.6 1.2000000000000002 30.700000000000003 1.2000000000000002Z M63.2 0.0V-53.400000000000006H73.1L73.6 -41.2L72.4 -41.5Q73.6 -47.900000000000006 76.5 -51.25Q79.4 -54.6 83.8 -54.6Q88.6 -54.6 91.0 -51.2Q93.4 -47.800000000000004 94.1 -41.0H92.80000000000001Q93.80000000000001 -47.6 97.05000000000001 -51.1Q100.30000000000001 -54.6 105.1 -54.6Q111.2 -54.6 114.0 -50.3Q116.80000000000001 -46.0 116.80000000000001 -36.6V0.0H105.5V-34.300000000000004Q105.5 -40.2 104.4 -42.35Q103.30000000000001 -44.5 100.9 -44.5Q99.30000000000001 -44.5 98.05000000000001 -43.45Q96.80000000000001 -42.400000000000006 96.05000000000001 -40.10000000000001Q95.30000000000001 -37.800000000000004 95.30000000000001 -34.2V0.0H84.7V-34.300000000000004Q84.7 -39.900000000000006 83.6 -42.2Q82.5 -44.5 80.0 -44.5Q78.3 -44.5 77.1 -43.45Q75.9 -42.400000000000006 75.2 -40.10000000000001Q74.5 -37.800000000000004 74.5 -34.2V0.0Z M150.0 1.2000000000000002Q142.5 1.2000000000000002 136.85 -2.2Q131.2 -5.6000000000000005 128.1 -11.9Q125.0 -18.2 125.0 -26.700000000000003Q125.0 -35.2 128.1 -41.5Q131.2 -47.800000000000004 136.85 -51.2Q142.5 -54.6 150.0 -54.6Q157.5 -54.6 163.15 -51.2Q168.8 -47.800000000000004 171.9 -41.550000000000004Q175.0 -35.300000000000004 175.0 -26.700000000000003Q175.0 -18.2 171.9 -11.9Q168.8 -5.6000000000000005 163.15 -2.2Q157.5 1.2000000000000002 150.0 1.2000000000000002ZM150.0 -9.4Q156.1 -9.4 159.39999999999998 -13.95Q162.7 -18.5 162.7 -26.700000000000003Q162.7 -34.9 159.39999999999998 -39.45Q156.1 -44.0 150.0 -44.0Q143.9 -44.0 140.60000000000002 -39.45Q137.3 -34.9 137.3 -26.700000000000003Q137.3 -18.5 140.60000000000002 -13.95Q143.9 -9.4 150.0 -9.4Z M205.5 -3.4000000000000004V-55.0Q205.5 -58.0 203.85 -59.7Q202.2 -61.400000000000006 199.1 -61.400000000000006H187.2V-71.0H200.9Q209.0 -71.0 213.15 -66.85Q217.3 -62.7 217.3 -54.5V-3.4000000000000004ZM185.2 0.0V-9.600000000000001H234.8V0.0Z M262.7 0.0V-14.100000000000001H277.3V0.0Z M322.7 0.0 304.0 -53.400000000000006H316.7L330.0 -12.8L343.3 -53.400000000000006H356.0L337.3 0.0Z M391.1 1.2000000000000002Q383.5 1.2000000000000002 377.8 -2.3000000000000003Q372.1 -5.800000000000001 368.9 -12.05Q365.7 -18.3 365.7 -26.700000000000003Q365.7 -35.1 368.9 -41.35Q372.1 -47.6 377.8 -51.1Q383.5 -54.6 391.1 -54.6Q397.3 -54.6 402.25 -52.2Q407.2 -49.800000000000004 410.45 -45.35000000000001Q413.7 -40.900000000000006 414.6 -34.800000000000004L402.7 -34.1Q401.6 -38.900000000000006 398.6 -41.45Q395.6 -44.0 391.2 -44.0Q385.0 -44.0 381.5 -39.35Q378.0 -34.7 378.0 -26.700000000000003Q378.0 -18.7 381.5 -14.05Q385.0 -9.4 391.2 -9.4Q395.6 -9.4 398.75 -12.100000000000001Q401.9 -14.8 403.0 -20.0L414.9 -19.3Q413.9 -13.100000000000001 410.65 -8.5Q407.4 -3.9000000000000004 402.35 -1.35Q397.3 1.2000000000000002 391.1 1.2000000000000002Z" clip-path="url(#vcclip32)"/></g>
  </g>
</svg>